<mxfile host="Electron" modified="2024-03-30T18:26:55.023Z" agent="Mozilla/5.0 (Windows NT 10.0; Win64; x64) AppleWebKit/537.36 (KHTML, like Gecko) draw.io/24.0.4 Chrome/120.0.6099.109 Electron/28.1.0 Safari/537.36" etag="NMee7d7rAqNQn2etKWD-" version="24.0.4" type="device">
  <diagram name="Page-1" id="2YBvvXClWsGukQMizWep">
    <mxGraphModel dx="1154" dy="1677" grid="1" gridSize="10" guides="1" tooltips="1" connect="1" arrows="1" fold="1" page="1" pageScale="1" pageWidth="850" pageHeight="1100" math="0" shadow="0">
      <root>
        <mxCell id="0" />
        <mxCell id="1" parent="0" />
        <mxCell id="HvKkGWitCOGtygPR9ogZ-5" value="" style="rounded=0;whiteSpace=wrap;html=1;" parent="1" vertex="1">
          <mxGeometry x="90" y="-780" width="490" height="260" as="geometry" />
        </mxCell>
        <mxCell id="aM9ryv3xv72pqoxQDRHE-1" value=":Orientador" style="shape=umlLifeline;perimeter=lifelinePerimeter;whiteSpace=wrap;html=1;container=0;dropTarget=0;collapsible=0;recursiveResize=0;outlineConnect=0;portConstraint=eastwest;newEdgeStyle={&quot;edgeStyle&quot;:&quot;elbowEdgeStyle&quot;,&quot;elbow&quot;:&quot;vertical&quot;,&quot;curved&quot;:0,&quot;rounded&quot;:0};" parent="1" vertex="1">
          <mxGeometry x="110" y="-910" width="100" height="640" as="geometry" />
        </mxCell>
        <mxCell id="aM9ryv3xv72pqoxQDRHE-2" value="" style="html=1;points=[];perimeter=orthogonalPerimeter;outlineConnect=0;targetShapes=umlLifeline;portConstraint=eastwest;newEdgeStyle={&quot;edgeStyle&quot;:&quot;elbowEdgeStyle&quot;,&quot;elbow&quot;:&quot;vertical&quot;,&quot;curved&quot;:0,&quot;rounded&quot;:0};" parent="aM9ryv3xv72pqoxQDRHE-1" vertex="1">
          <mxGeometry x="45" y="70" width="10" height="530" as="geometry" />
        </mxCell>
        <mxCell id="aM9ryv3xv72pqoxQDRHE-5" value=":Sistema" style="shape=umlLifeline;perimeter=lifelinePerimeter;whiteSpace=wrap;html=1;container=0;dropTarget=0;collapsible=0;recursiveResize=0;outlineConnect=0;portConstraint=eastwest;newEdgeStyle={&quot;edgeStyle&quot;:&quot;elbowEdgeStyle&quot;,&quot;elbow&quot;:&quot;vertical&quot;,&quot;curved&quot;:0,&quot;rounded&quot;:0};" parent="1" vertex="1">
          <mxGeometry x="495" y="-910" width="100" height="640" as="geometry" />
        </mxCell>
        <mxCell id="aM9ryv3xv72pqoxQDRHE-6" value="" style="html=1;points=[];perimeter=orthogonalPerimeter;outlineConnect=0;targetShapes=umlLifeline;portConstraint=eastwest;newEdgeStyle={&quot;edgeStyle&quot;:&quot;elbowEdgeStyle&quot;,&quot;elbow&quot;:&quot;vertical&quot;,&quot;curved&quot;:0,&quot;rounded&quot;:0};" parent="aM9ryv3xv72pqoxQDRHE-5" vertex="1">
          <mxGeometry x="45" y="80" width="10" height="520" as="geometry" />
        </mxCell>
        <mxCell id="aM9ryv3xv72pqoxQDRHE-7" value="propostaTesesEntregues(Orientador)" style="html=1;verticalAlign=bottom;endArrow=block;edgeStyle=elbowEdgeStyle;elbow=horizontal;curved=0;rounded=0;" parent="1" source="aM9ryv3xv72pqoxQDRHE-2" target="aM9ryv3xv72pqoxQDRHE-6" edge="1">
          <mxGeometry relative="1" as="geometry">
            <mxPoint x="265" y="-820" as="sourcePoint" />
            <Array as="points">
              <mxPoint x="250" y="-830" />
            </Array>
            <mxPoint as="offset" />
          </mxGeometry>
        </mxCell>
        <mxCell id="aM9ryv3xv72pqoxQDRHE-8" value="confirmation" style="html=1;verticalAlign=bottom;endArrow=open;dashed=1;endSize=8;edgeStyle=elbowEdgeStyle;elbow=vertical;curved=0;rounded=0;exitX=0;exitY=0.673;exitDx=0;exitDy=0;exitPerimeter=0;" parent="1" source="aM9ryv3xv72pqoxQDRHE-6" edge="1">
          <mxGeometry relative="1" as="geometry">
            <mxPoint x="170" y="-480" as="targetPoint" />
            <Array as="points">
              <mxPoint x="255" y="-480" />
            </Array>
            <mxPoint x="535" y="-480" as="sourcePoint" />
          </mxGeometry>
        </mxCell>
        <mxCell id="aM9ryv3xv72pqoxQDRHE-9" value="propostas_teses_submetidas" style="html=1;verticalAlign=bottom;endArrow=block;edgeStyle=elbowEdgeStyle;elbow=vertical;curved=0;rounded=0;entryX=0.5;entryY=0.094;entryDx=0;entryDy=0;entryPerimeter=0;" parent="1" source="aM9ryv3xv72pqoxQDRHE-6" target="aM9ryv3xv72pqoxQDRHE-2" edge="1">
          <mxGeometry relative="1" as="geometry">
            <mxPoint x="245" y="-790" as="sourcePoint" />
            <Array as="points">
              <mxPoint x="260" y="-790" />
            </Array>
            <mxPoint x="170" y="-790" as="targetPoint" />
          </mxGeometry>
        </mxCell>
        <mxCell id="4nBRewQyu8Tajdc3RTVB-1" value="Orientador" style="shape=umlActor;verticalLabelPosition=bottom;verticalAlign=top;html=1;outlineConnect=0;" parent="1" vertex="1">
          <mxGeometry x="145" y="-1000" width="30" height="60" as="geometry" />
        </mxCell>
        <mxCell id="HvKkGWitCOGtygPR9ogZ-1" value="&lt;font style=&quot;font-size: 18px;&quot;&gt;&lt;b&gt;&lt;font style=&quot;&quot;&gt;Marcação da Defesa da proposta de tese&lt;/font&gt;, por parte do orientador da tese&lt;/b&gt;&lt;/font&gt;" style="text;html=1;align=center;verticalAlign=middle;whiteSpace=wrap;rounded=0;" parent="1" vertex="1">
          <mxGeometry x="100" y="-1070" width="640" height="30" as="geometry" />
        </mxCell>
        <mxCell id="HvKkGWitCOGtygPR9ogZ-2" value="marcarDefesaPropostaTese(propostaTese, presencial)" style="html=1;verticalAlign=bottom;endArrow=block;edgeStyle=elbowEdgeStyle;elbow=horizontal;curved=0;rounded=0;" parent="1" source="aM9ryv3xv72pqoxQDRHE-2" edge="1">
          <mxGeometry relative="1" as="geometry">
            <mxPoint x="170" y="-750" as="sourcePoint" />
            <Array as="points">
              <mxPoint x="255" y="-750" />
            </Array>
            <mxPoint x="540" y="-750" as="targetPoint" />
            <mxPoint as="offset" />
          </mxGeometry>
        </mxCell>
        <mxCell id="HvKkGWitCOGtygPR9ogZ-3" value="catalago_de_salas" style="html=1;verticalAlign=bottom;endArrow=block;edgeStyle=elbowEdgeStyle;elbow=vertical;curved=0;rounded=0;" parent="1" edge="1">
          <mxGeometry relative="1" as="geometry">
            <mxPoint x="540" y="-720" as="sourcePoint" />
            <Array as="points">
              <mxPoint x="250" y="-720" />
            </Array>
            <mxPoint x="165" y="-720" as="targetPoint" />
          </mxGeometry>
        </mxCell>
        <mxCell id="HvKkGWitCOGtygPR9ogZ-7" value="" style="verticalLabelPosition=bottom;verticalAlign=top;html=1;shape=mxgraph.basic.corner_round_rect;dx=15;whiteSpace=wrap;rotation=-180;" parent="1" vertex="1">
          <mxGeometry x="90" y="-780" width="60" height="30" as="geometry" />
        </mxCell>
        <mxCell id="HvKkGWitCOGtygPR9ogZ-12" value="Alt" style="text;html=1;align=center;verticalAlign=middle;whiteSpace=wrap;rounded=0;" parent="1" vertex="1">
          <mxGeometry x="90" y="-780" width="60" height="30" as="geometry" />
        </mxCell>
        <mxCell id="HvKkGWitCOGtygPR9ogZ-13" value="" style="endArrow=none;dashed=1;html=1;dashPattern=1 3;strokeWidth=2;rounded=0;exitX=0;exitY=0.5;exitDx=0;exitDy=0;entryX=1;entryY=0.5;entryDx=0;entryDy=0;" parent="1" edge="1">
          <mxGeometry width="50" height="50" relative="1" as="geometry">
            <mxPoint x="90" y="-660" as="sourcePoint" />
            <mxPoint x="580" y="-660" as="targetPoint" />
          </mxGeometry>
        </mxCell>
        <mxCell id="HvKkGWitCOGtygPR9ogZ-16" value="marcarDefesaPropostaTese(propostaTese, remoto)" style="html=1;verticalAlign=bottom;endArrow=block;edgeStyle=elbowEdgeStyle;elbow=horizontal;curved=0;rounded=0;" parent="1" edge="1">
          <mxGeometry relative="1" as="geometry">
            <mxPoint x="160" y="-630" as="sourcePoint" />
            <Array as="points">
              <mxPoint x="250" y="-630" />
            </Array>
            <mxPoint x="535" y="-630" as="targetPoint" />
            <mxPoint as="offset" />
          </mxGeometry>
        </mxCell>
        <mxCell id="HvKkGWitCOGtygPR9ogZ-17" value="horarios_disponiveis" style="html=1;verticalAlign=bottom;endArrow=block;edgeStyle=elbowEdgeStyle;elbow=vertical;curved=0;rounded=0;" parent="1" edge="1">
          <mxGeometry relative="1" as="geometry">
            <mxPoint x="535" y="-590" as="sourcePoint" />
            <Array as="points">
              <mxPoint x="245" y="-590" />
            </Array>
            <mxPoint x="160" y="-590" as="targetPoint" />
          </mxGeometry>
        </mxCell>
        <mxCell id="w3Y5VknggvWRWt7Su9eR-18" value="" style="group" vertex="1" connectable="0" parent="1">
          <mxGeometry x="130" y="-700" width="440" height="40" as="geometry" />
        </mxCell>
        <mxCell id="w3Y5VknggvWRWt7Su9eR-14" value="" style="rounded=0;whiteSpace=wrap;html=1;" vertex="1" parent="w3Y5VknggvWRWt7Su9eR-18">
          <mxGeometry y="-11.34" width="440" height="40" as="geometry" />
        </mxCell>
        <mxCell id="w3Y5VknggvWRWt7Su9eR-16" value="" style="verticalLabelPosition=bottom;verticalAlign=top;html=1;shape=mxgraph.basic.corner_round_rect;dx=6;whiteSpace=wrap;rotation=-180;" vertex="1" parent="w3Y5VknggvWRWt7Su9eR-18">
          <mxGeometry y="-11.34" width="53.88" height="14.62" as="geometry" />
        </mxCell>
        <mxCell id="w3Y5VknggvWRWt7Su9eR-15" value="Loop" style="text;html=1;align=center;verticalAlign=middle;whiteSpace=wrap;rounded=0;" vertex="1" parent="w3Y5VknggvWRWt7Su9eR-18">
          <mxGeometry y="-14.03" width="53.88" height="20" as="geometry" />
        </mxCell>
        <mxCell id="HvKkGWitCOGtygPR9ogZ-4" value="confirmarMarcacao(sala)" style="html=1;verticalAlign=bottom;endArrow=block;edgeStyle=elbowEdgeStyle;elbow=horizontal;curved=0;rounded=0;" parent="w3Y5VknggvWRWt7Su9eR-18" edge="1">
          <mxGeometry relative="1" as="geometry">
            <mxPoint x="40" y="7" as="sourcePoint" />
            <Array as="points">
              <mxPoint x="122.5" y="6.940000000000005" />
            </Array>
            <mxPoint x="407.5" y="6.940000000000005" as="targetPoint" />
            <mxPoint as="offset" />
          </mxGeometry>
        </mxCell>
        <mxCell id="w3Y5VknggvWRWt7Su9eR-19" value="" style="group" vertex="1" connectable="0" parent="1">
          <mxGeometry x="130" y="-560" width="440" height="40" as="geometry" />
        </mxCell>
        <mxCell id="w3Y5VknggvWRWt7Su9eR-20" value="" style="rounded=0;whiteSpace=wrap;html=1;" vertex="1" parent="w3Y5VknggvWRWt7Su9eR-19">
          <mxGeometry y="-11.34" width="440" height="40" as="geometry" />
        </mxCell>
        <mxCell id="w3Y5VknggvWRWt7Su9eR-21" value="" style="verticalLabelPosition=bottom;verticalAlign=top;html=1;shape=mxgraph.basic.corner_round_rect;dx=6;whiteSpace=wrap;rotation=-180;" vertex="1" parent="w3Y5VknggvWRWt7Su9eR-19">
          <mxGeometry y="-11.34" width="53.88" height="14.62" as="geometry" />
        </mxCell>
        <mxCell id="w3Y5VknggvWRWt7Su9eR-22" value="Loop" style="text;html=1;align=center;verticalAlign=middle;whiteSpace=wrap;rounded=0;" vertex="1" parent="w3Y5VknggvWRWt7Su9eR-19">
          <mxGeometry y="-14.03" width="53.88" height="20" as="geometry" />
        </mxCell>
        <mxCell id="HvKkGWitCOGtygPR9ogZ-18" value="confirmarMarcacao(horario)" style="html=1;verticalAlign=bottom;endArrow=block;edgeStyle=elbowEdgeStyle;elbow=horizontal;curved=0;rounded=0;" parent="1" edge="1">
          <mxGeometry relative="1" as="geometry">
            <mxPoint x="160" y="-550" as="sourcePoint" />
            <Array as="points">
              <mxPoint x="250" y="-550" />
            </Array>
            <mxPoint x="535" y="-550" as="targetPoint" />
            <mxPoint as="offset" />
          </mxGeometry>
        </mxCell>
      </root>
    </mxGraphModel>
  </diagram>
</mxfile>
